# xmcd
#
# Track frame offsets: 
#        150
#        17477
#        39847
#        48995
#        65800
#        91282
#        109542
#        122800
#        137537
#        151377
#        166815
#        185435
#        201137
#        217970
#        237380
#        257375
#
# Disc length: 3810 seconds
#
# Revision: 5
# Processed by: cddbd v1.5.2PL0 Copyright (c) Steve Scherf et al.
# Submitted via: ExactAudioCopyFreeDBPlugin 1.0
#
DISCID=cd0ee010
DTITLE=Billie Holiday - Verve Jazz Masters 47 - Billie Holiday Sings S
DTITLE=tandards
DYEAR=1995
DGENRE=Jazz
TTITLE0=But Not For Me
TTITLE1=When Your Lover Has Gone
TTITLE2=All of Me
TTITLE3=Stormy Weather
TTITLE4=Gee, Baby, Ain't I Good For You!
TTITLE5=It Had to Be You
TTITLE6=East of the Sun (And West of the Moon)
TTITLE7=Body and Soul
TTITLE8=April in Paris
TTITLE9=Tenderly
TTITLE10=When It's Sleepy Time Down South
TTITLE11=You Turned the Tables on Me
TTITLE12=Love Is Here to Stay
TTITLE13=What's New?
TTITLE14=We'll Be Together Again
TTITLE15=Darn That Dream
EXTD=YEAR: 1995
EXTT0=
EXTT1=
EXTT2=
EXTT3=
EXTT4=
EXTT5=
EXTT6=
EXTT7=
EXTT8=
EXTT9=
EXTT10=
EXTT11=
EXTT12=
EXTT13=
EXTT14=
EXTT15=
PLAYORDER=
